<?xml version="1.0" encoding="UTF-8"?>
<svg id="Layer_1" data-name="Layer 1" xmlns="http://www.w3.org/2000/svg" viewBox="0 0 34.32 51.27">
  <defs>
    <style>
      .cls-1 {
        letter-spacing: -.02em;
      }

      .cls-2 {
        fill: #231f20;
        font-family: rubik, Rubik-Light, Rubik, sans-serif;
        font-size: 5.61px;
        font-variation-settings: 'wght' 300;
        font-weight: 300;
      }

      .cls-3 {
        letter-spacing: 0em;
      }

      .cls-4 {
        letter-spacing: -.08em;
      }

      .cls-5 {
        fill: #c42f26;
        stroke: #231f20;
        stroke-miterlimit: 10;
      }

      .cls-6 {
        letter-spacing: 0em;
      }
    </style>
  </defs>
  <rect class="cls-5" x="8.83" y="10.77" width="17.04" height="40" rx="5.39" ry="5.39"/>
  <polygon class="cls-5" points="28.94 .5 22.04 .5 21.33 1.21 20.61 .5 13.71 .5 13 1.21 12.28 .5 5.38 .5 .5 5.38 .5 12.28 5.38 17.16 12.28 17.16 13 16.45 13.71 17.16 20.61 17.16 21.33 16.45 22.04 17.16 28.94 17.16 33.82 12.28 33.82 5.38 28.94 .5"/>
  <polygon class="cls-5" points="24.78 40 20.32 40 19.85 40.46 19.39 40 14.93 40 14.47 40.46 14.01 40 9.54 40 6.39 43.15 6.39 47.61 9.54 50.77 14.01 50.77 14.47 50.31 14.93 50.77 19.39 50.77 19.85 50.31 20.32 50.77 24.78 50.77 27.93 47.61 27.93 43.15 24.78 40"/>
  <text class="cls-2" transform="translate(12.47 7.59)"><tspan class="cls-4" x="0" y="0">A</tspan><tspan class="cls-3" x="3.23" y="0">T</tspan><tspan class="cls-1" x="6.35" y="0">P</tspan><tspan x="-7.03" y="6.74">Sy</tspan><tspan class="cls-6" x="-.65" y="6.74">n</tspan><tspan x="2.62" y="6.74">thase</tspan></text>
</svg>