<?xml version="1.0" encoding="UTF-8"?>
<svg id="Layer_1" data-name="Layer 1" xmlns="http://www.w3.org/2000/svg" viewBox="0 0 296.28 168.05">
  <defs>
    <style>
      .cls-1 {
        fill: #7d00ce;
      }

      .cls-1, .cls-2 {
        stroke-width: 0px;
      }

      .cls-2 {
        fill: #a700ff;
      }
    </style>
  </defs>
  <rect class="cls-2" width="296.28" height="168"/>
  <polygon class="cls-1" points="93.57 48.31 53.57 48.31 33.57 82.95 53.57 117.59 93.57 117.59 113.57 82.95 93.57 48.31"/>
  <polygon class="cls-1" points="183.12 .05 203.12 34.69 243.12 34.69 263.12 .05 183.12 .05"/>
  <polygon class="cls-1" points="33.12 .05 53.12 34.69 93.12 34.69 113.12 .05 33.12 .05"/>
  <polygon class="cls-1" points="243.34 133.36 203.34 133.36 183.34 168 263.34 168 243.34 133.36"/>
  <polygon class="cls-1" points="93.12 133.4 53.12 133.4 33.12 168.05 113.12 168.05 93.12 133.4"/>
  <polygon class="cls-1" points="296.14 6 276.52 5.63 256.52 40.27 276.52 74.92 296.14 75 296.14 6"/>
  <polygon class="cls-1" points="296.14 93.08 276.52 92.72 256.52 127.36 276.52 162 296.14 162.08 296.14 93.08"/>
  <polygon class="cls-1" points=".37 162 19.99 162.36 39.99 127.72 19.99 93.08 .37 93 .37 162"/>
  <polygon class="cls-1" points=".37 74.91 19.99 75.28 39.99 40.64 19.99 6 .37 5.91 .37 74.91"/>
  <polygon class="cls-1" points="168.93 7.78 128.93 7.78 108.93 42.42 128.93 77.06 168.93 77.06 188.93 42.42 168.93 7.78"/>
  <polygon class="cls-1" points="168.93 92.78 128.93 92.78 108.93 127.42 128.93 162.06 168.93 162.06 188.93 127.42 168.93 92.78"/>
  <polygon class="cls-1" points="242.93 49.78 202.93 49.78 182.93 84.42 202.93 119.06 242.93 119.06 262.93 84.42 242.93 49.78"/>
</svg>