<?xml version="1.0" encoding="UTF-8"?>
<svg id="Layer_1" data-name="Layer 1" xmlns="http://www.w3.org/2000/svg" viewBox="0 0 89.41 30.87">
  <defs>
    <style>
      .cls-1 {
        fill: #231f20;
        font-family: rubik, Rubik-Light, Rubik;
        font-size: 12px;
        font-variation-settings: 'wght' 300;
        font-weight: 300;
      }

      .cls-2 {
        fill: #a71e22;
        stroke: #231f20;
        stroke-miterlimit: 10;
      }
    </style>
  </defs>
  <path class="cls-2" d="m87.84,8.18l-6.61-6.61c-.69-.69-1.62-1.07-2.59-1.07h-9.34c-.97,0-1.9.39-2.59,1.07l-6.61,6.61c-.33.33-.59.72-.77,1.14-.18-.42-.44-.81-.77-1.14l-6.61-6.61c-.69-.69-1.62-1.07-2.59-1.07h-9.34c-.97,0-1.9.39-2.59,1.07l-6.61,6.61c-.33.33-.59.72-.77,1.14-.18-.42-.44-.81-.77-1.14l-6.61-6.61c-.69-.69-1.62-1.07-2.59-1.07h-9.34c-.97,0-1.9.39-2.59,1.07L1.57,8.18c-.69.69-1.07,1.62-1.07,2.59v9.34c0,.97.39,1.9,1.07,2.59l6.61,6.61c.69.69,1.62,1.07,2.59,1.07h9.34c.97,0,1.9-.39,2.59-1.07l6.61-6.61c.33-.33.59-.72.77-1.14.18.42.44.81.77,1.14l6.61,6.61c.69.69,1.62,1.07,2.59,1.07h9.34c.97,0,1.9-.39,2.59-1.07l6.61-6.61c.33-.33.59-.72.77-1.14.18.42.44.81.77,1.14l6.61,6.61c.69.69,1.62,1.07,2.59,1.07h9.34c.97,0,1.9-.39,2.59-1.07l6.61-6.61c.69-.69,1.07-1.62,1.07-2.59v-9.34c0-.97-.39-1.9-1.07-2.59Z"/>
  <text class="cls-1" transform="translate(21.89 19.01)"><tspan x="0" y="0">RuBisCo</tspan></text>
</svg>